<svg xmlns="http://www.w3.org/2000/svg" viewBox="0 0 96 96">
  <path fill="#B4C1CE" d="M0 0h96v96H0V0Z"/>
  <path fill="#BAB6B0" d="M50.2 28.9h20.6L96 29v67H16l-2-22c-1.3 1-1.3 1-1.1 3.7v6.6L13 87c0 1 0 1-1 3-2-1-2-1-4-3-.3-3.7-.3-3.7 0-7h2l-.1-2.8c0-2.5-.2-4.8 1.2-7 .2-2.7 1.1-2.9.9-5.2h2l1-3 5 1v3l9 2v1l-6 1v3h-5l-1 11h4l-1-3h3v-2c3.5-2.1 6.2-2.2 10.2-2.1h3.3l2.5.1-5-1v-1l7-1 1-5H30v-2l11-2v-5.8l-.1-3.2c0-2.6.5-4.5 1.1-7l.6-7.8v-2L43 34l-3-2v-2c3.5-.8 6.7-1.1 10.2-1.1Z"/>
  <path fill="#B9B5C6" d="M0 32h16c-2 4-2 4-3 5v5l1-2h3l2-4 1 4 1.9-2.9C24 34 24 34 26 32c2.8-.2 2.8-.2 6.1-.1h3.3l2.6.1v2h2v4l3 1c.4 8.8-.8 17.3-2 26a26 26 0 0 1-11 2v2h12v5l-3 2 1 2h-6.8l-3.8-.1c-3.4 0-3.4 0-6.4 1.1v2h-3l2 4-5-1a585.3 585.3 0 0 1-.1-6.8C17 75 17 75 18 73h5v-3l-3-1 3-1-4-2v-2l-4-1-1 2h-2l.6 2.8C13 71 13 71 11 74l-1 6H8c.3 3.4.3 3.4 1 7l3 2-1-1 .8-6c.3-2.1.3-2.1 0-4.8C12 75 12 75 15 72l1 24H0V32Z"/>
  <path fill="#DDD4C8" d="m53 68 1 3c4.9 1.8 9.3.6 14.2-.5l3.8-.8 3-.7 1 2-4 1 9 1 1-2-4 1-1-2c6-1 6-1 19-1v27H40c0-11 0-11 3-17l2.2-5.4 1-2.7.8-1.9 1.9.6 2.1.4 2-2Z"/>
  <path fill="#758389" d="M50.2 28.9h27.9L96 29v24H81l-2.9.1h-2.9C73 53 73 53 72 52H53.3l-3 .1C48 52 48 52 47 51c-.3-3.4-.7-6.7-.9-10.1-.2-2.4-.2-2.4-1.1-5.9-2.5-2-2.5-2-5-3l-2.5-2c3.5-.8 9.2-1.1 12.7-1.1Z"/>
  <path fill="#A4A1A4" d="M41 65s5.7 8.7 2 16c-2.6 5.3-2.3 8.2-3 15H16l2-30.2L42 69l-1-4Z"/>
  <path fill="#DCD4C7" d="m53 68 1 3c4.9 1.8 9.3.6 14.2-.5l3.8-.8 3-.7 1 2-4 1 9 1 1-2-4 1-1-2c4.4-.8 8.4-1.1 12.9-1H96v7c-6.6.1-6.6.1-9.1-.7-2-.5-2-.5-4.3 1.1-3 1.9-5 1.8-8.6 1.6l4-2-3.3-.4C71 75 71 75 68 74c-3.1.2-3.1.2-6 1l-1 2-2 3h-4l2 1c2 1 2 1 3 2h6l-3 4 2 1v4l8 1v2c-4 1-7.6 1.1-11.6 1.1H49.7L40 96v-4.8l-.1-2.7C40 85 41.4 82.3 43 79l2.2-5.4 1-2.7.8-1.9 1.9.6 2.1.4 2-2Z"/>
  <path fill="#D8CFC0" d="m12 44 3 1v2.1l-.1 2.8-.1 2.7c0 2.6 0 2.6 2.2 4.4l-1 5-2 3h-2l.6 2.8C13 71 13 71 11 74l-1 6H8c.3 3.4.3 3.4 1 7l3 2-1-1 .8-6c.3-2.1.3-2.1 0-4.8C12 75 12 75 15 72l1 24H0V51l10-1 2-6Z"/>
  <path fill="#A79D9D" d="m15 62 5 1v3l9 2v1l-6 1v3h-5l-1 11h4v-2c4.2-3.1 4.2-3.1 7.3-2.7l1.7.7v2l3 1h-2v2l4 1h-5l-1 4-2-2-1 8H16s-2.3-23.2-1-25.4c.2-2.7-.7-1.6-.9-3.9L14 65l1-3Z"/>
  <path fill="#C2B5A5" d="M71.9 62.8h2.5c7.2.1 14.4.5 21.6 1.2v5l-17 1v1h3l-1 3-4.4-.4-2.4-.2C72 73 72 73 70 71c-3 .4-6 1-9 1.7-3.2.3-4.5.1-7-1.7-.8-2.1-.8-2.1-1-4l5 1 1-3c3.7-2.9 8.4-2.3 12.9-2.2Z"/>
  <path fill="#AB9F94" d="M48 57a305.7 305.7 0 0 1 22.9.5c3.8.2 5.9.3 9.1 2.5l1-2 15 1v5h-3a907.7 907.7 0 0 0-22.3-.5h-2.1c-4 0-5.4.3-8.4 3L58 69c-2.5-.1-2.5-.1-5-1l-2.8-.6L48 67v-4l14-1H51v-3h-3v-2Z"/>
  <path fill="#748386" d="M0 32h16c-2 4-2 4-4 7-.4 2.7-.4 2.7-.6 5.6-.3 5.3-.3 5.3-1.4 6.4H0V32Z"/>
  <path fill="#AEABAD" d="M28 67h2v2h12v5l-3 2 1 2h-6.8l-3.8-.1c-3.4 0-3.4 0-6.4 1.1v2h-3s3 2.8 2 4c-1 1.4-4 .3-5-1-1.4-1.7 0-4.5-.1-6.8C17 75 17 75 18 73h5v-3l-3-1 8-1v-1Z"/>
  <path fill="#56453C" d="M32 10c2.7 3.3 2.2 7 2 11l-1 5.4c-4.4.4-7.5 1-11.6-1C19.5 23 19 22 19 18a13 13 0 0 1 4-8c3.2-1.4 5.8-1.1 9 0Z"/>
  <path fill="#D2C7B9" d="m53 68 1 3c4.9 1.8 9.3.6 14.2-.5l3.8-.8 3-.7 1 2-4 1 9 1 1-2-4 1-1-2c4.4-.8 8.4-1.1 12.9-1H96v7c-6.6.1-6.6.1-9.1-.7-2-.5-2-.5-4.3 1.1-3 1.9-4.6-.4-4.6-.4l-3.3-.4C71 75 71 75 68 74h-7.6c-7.1.1-7.1.1-9.4-1h-5l2-4h4l1-1Z"/>
  <path fill="#9F98A7" d="M43 39c2 2 2 2 2.1 5.4l-.2 6.2.1 5.4 2 2-1 2.5c2 7.3 1.2 12-2 18.7-1 1.8-1 1.8-3 2.8 0-4.7 0-8.3 1-13H30v-2l11-2-.1-5.1c0-7.1 1-14 2.1-20.9Z"/>
  <path fill="#6E7A7F" d="m80 35 2.4 1c4.6 1.3 8.8 1.2 13.6 1v7l-8-1v2s-.8 3.1-3 2v-2l-10-1v-2l-2.3-.4C70 41 70 41 67 40v-2l2.3-.4 4.8-1.2C76 36 76 36 79 36l1-1Z"/>
  <path fill="#CFC4B4" d="M14 72h1l1 24H0v-9c8.6-.3 8.6-.3 12 2l-1-1 .8-6c.3-2.1.3-2.1.1-4.8C12 75 12 75 14 72Z"/>
  <path fill="#D4D4E6" d="M27.7 25.4c4.5.8 7.5 3 11.3 5.6l5 3-1 5-3-1v-4h-2v-2l-1.5.5c-2.4.5-4.2.5-6.6.4-3.7-.2-3.7-.2-5.7 1.3A125 125 0 0 0 20 41l-2-3-1 2h-3l-1 3h-1c-.3-2.8-.3-2.8 0-6 2.4-2.4 4.7-3.9 7.6-5.5 2.5-1.3 2.5-1.3 3.8-3.7C25 26 25 26 27.7 25.4Z"/>
  <path fill="#829C95" d="M73.8 48.5c4.3.7 22-.2 22-.2L96 53H81.3l-3.2.1h-2.9C73 53 73 53 72 52l-5.3-.1h-6.8L48 52l-1-2a62 62 0 0 1 26.8-1.5Z"/>
  <path fill="#A8B1AA" d="M47 51h15.7l3.3-.1h3.1c2.8.1 5.2.5 7.9 1.1l4.6.3 2.6.1 2.6.2h2.7l6.5.4v2h-6.9l-3.8.1C82 55 82 55 80 54v2l-7.2.5-2 .1c-10.3.7-10.3.7-13.8-1.6-2.3-.5-2.3-.5-4.7-.6L50 54h-2l-1-3Z"/>
  <path fill="#B9B4AA" d="m0 51 10 .2L9 64H0V51Z"/>
  <path fill="#AEA9B8" d="M16 43c2 .5 2 .5 4 2 .4 2.8.7 5.2.7 8 0 5.2 0 5.2 1.3 10l-1 3h2v-2l3-1c0 3 0 3-1 5l-6-2v-2l-4.4-.6.5-5L14 55c0-2.6 0-2.6.3-5.6l.3-3C15 44 15 44 16 43Z"/>
  <path fill="#B5AFB0" d="M30 86h4s-1.4 4.6 0 6c.5.5 2 0 2 0s.3-1.9 1-2c.5 0 .5 1 1 1 1.5-.2 2-4 2-4v9H26v-8l2-1 2-1Z"/>
  <path fill="#CBC8D4" d="m12 44 3 1v2.1l-.1 2.8-.1 2.7c0 2.6-2 1.8.1 3.6l-1.3 4.6-1.3 7.4-3.3-2c0-6-.2-4.5.1-9l.9-3.8c.5-3.4.8-6.2 2-9.4Z"/>
  <path fill="#C9BDAF" d="M87.6 69H96v7c-4.2 0-8 0-12-1v-2h-2v-2l-4 1-1-2c3.3-1.7 7-1.1 10.6-1Z"/>
  <path fill="#C3C0C5" d="m8.9 63.6 3.2.2c1.1 3.3 0 18.8 0 18.8l-3.5-1.8.3-17.2Z"/>
  <path fill="#AFA293" d="m66 66 30 1v2l-17 1v1h3l-1 3-4.4-.4-2.4-.2C72 73 72 73 70 71l5-1-9-3v-1Z"/>
  <path fill="#83787B" d="m41 65 2 4.2 1.4-1.2c1.3 6 1.4 7.8-1.4 13l-1.8 1c0-4.8.8-8 1.8-12.8L30 69v-2l4.4-1 2.4-.6C39 65 39 65 41 65Z"/>
  <path fill="#473328" d="M21 16c3.9-2.2 6-3 7-1.1.5.7-1.4 5.5-1.4 5.5C26 23 26 23 25 25c-2.9-.6-3.9-.9-6-3v-4h2v-2Z"/>
  <path fill="#CCD1EC" d="M27.8 26.5c6-.8 6.4 1.2 11.2 4.5l5 3-1 5-3-1v-4h-2v-2l-1.6.6c-3.4.6-6.1-.5-9.4-1.6v-4l.8-.5Z"/>
  <path fill="#9AACA4" d="M47 51h25l1 2h-8v2l-17-1-1-3Z"/>
  <path fill="#B7B6BB" d="M24 71a332.7 332.7 0 0 1 6.8.6C33 72 33 72 35 74h-2v2l-4-1-1 2c-2 .4-2 .4-4.6.6L21 78h-2l-1-5h6v-2Z"/>
  <path fill="#CCBFB4" d="M14 72h1l1 21-4-1 1-4h-2l.5-3.7c.3-2.4.5-4.6.4-7.1C12 75 12 75 14 72Z"/>
  <path fill="#7A8F8D" d="m74 50-2.9.2c-7.7.5-15.4 1-23.1 1.8l-1-2c8-2 19.8-4.8 27 0Z"/>
  <path fill="#6B787E" d="m62 37 1 1 3 1-3 2v2h5l-1 2h-5l-2-2c-2.1.3-2.1.3-4 1v-5h3v-2h3Z"/>
  <path fill="#6A7A80" d="M96 30v2c-20.5 2.8-20.5 2.8-30 0v-1l12.2-.5 3.5-.1 3.3-.2 3.1-.1L96 30Z"/>
  <path fill="#ADAABA" d="m44 34 1.8 1c2.4 8.7 1.6 14.4.2 21l-2 1v-9.9c.1-3.8-.2-7.3-1-11.1l1-2Z"/>
  <path fill="#79878D" d="M43 33h7l1 1h8v1l-5 1-1 4-3-3v2l-4 1-.4-2.4C45.2 35 45.2 35 43 33Z"/>
  <path fill="#D3CDC2" d="M45 77c0 3.2-.7 5-2 8l2 1v4l-3 2v4h-2c-.4-6.5-.1-11.2 3-17l2-2Z"/>
  <path fill="#CAC7D5" d="m11.3 44.2 4.4-.5-.7 3.4-.1 2.8-.1 2.7c0 2.6 0 1.7.2 3.5V58l-3-1v-5h-2c.9-6.9.7-5.5 1.3-7.8Z"/>
  <path fill="#C8BFAF" d="m0 64 9-.7-.2 12c-3.3 1-5.4-5.5-8.8-6.3v-5Z"/>
  <path fill="#A7A5AA" d="M28 67h2v2h10v1c-5.7 2-10 2-16 1l-1 2v-3l-3-1 8-1v-1Z"/>
  <path fill="#C4BAA9" d="M68.6 62.8h3A8 8 0 0 1 76 64v2H59c4.2-3.1 4.8-3.4 9.6-3.3Z"/>
  <path fill="#BEBBCA" d="M18 36h1c1.3 6.6 1.3 6.6-1 10l-2-2c-2.6.3-2.6.3-5 1l.7-5.8 1.2 2L14 40h3l1-4Z"/>
  <path fill="#89A19A" d="M59 50h20v1l7 1v1h-6.4l-3.7.1C73 53 73 53 72 52l-6.6-.6-3.6-.2L59 51v-1Z"/>
  <path fill="#D8CFBF" d="m0 88 2 1 6-1-2 2 3 3H2v2H0v-7Z"/>
  <path fill="#AAA3AF" d="m43.3 55.4 3-.8L46 59v1.6c1.2 4 1.1 7.3 1 11.5-3.4-5-4-10.6-3.7-16.6Z"/>
  <path fill="#788A90" d="M0 32h9l-3 2 2 1v2H0v-5Z"/>
  <path fill="#D2C9BC" d="M4.6 75H8l-1.5 1.3C4.7 78 4.7 78 5 81l-4 2-1-7c1-1 1-1 4.6-1Z"/>
  <path fill="#918980" d="M48 57c6.8-.1 13.3.1 20 1v1c-13.6 1.3-13.6 1.3-20 0v-2Z"/>
  <path fill="#9C94A0" d="M19 45h1l1 16h-2a34 34 0 0 1-2-13h2v-3Z"/>
  <path fill="#DADFF2" d="M27 27v2l2 1-1 2-5 1.1-2.8.5-2.2.4 2.8-3.5 1.6-2C24 27 24 27 27 27Z"/>
  <path fill="#B0A399" d="M89 60h7v4h-8l1-4Z"/>
  <path fill="#A3AEA5" d="M0 51h10v3H1l-1-3Z"/>
  <path fill="#97A8B3" d="m17 30 4 .3-2 2.7-4.5 1.7L16 32H0v-1l17-1Z"/>
  <path fill="#A5A4A6" d="M17 18h2l.8 2.3c1.3 2.9 2.8 4.5 5.2 6.7l-3 3v-3h-2l-1-3c-1.5-1.7-1.5-1.7-3-3l1-3Z"/>
  <path fill="#81574E" d="M9 81h4c0 7 0 7-1 9l-3-2c-.2-3.6-.2-3.6 0-7Z"/>
  <path fill="#B3B3BC" d="M42 69v5c-1 1-1 1-4 1h-3c3.4-6 3.4-6 7-6Z"/>
  <path fill="#504443" d="m18 66 12.4 1.5V69L21 70l1 2-5-2 1-4Z"/>
  <path fill="#7F7263" d="M32 10v1h-8l-1 5h-2l-1 2c.8-5.8.8-5.8 3-8 3.3-1.2 5.6-.8 9 0Z"/>
  <path fill="#D4CBBE" d="M63 93h10v2l-11 1 1-3Z"/>
  <path fill="#AAA193" d="M0 61h9v3H0v-3Z"/>
  <path fill="#A59798" d="M11 73h2v8H9v6H8v-7h2v-3c0-3 0-3 1-4Z"/>
  <path fill="#979291" d="m16 70 2.5-.2c3.8-.3 1.3.2 5-.2L23 73h-5l-2 4h-1l1-7Z"/>
  <path fill="#748285" d="m96 34-1 4h-9v-2c6.6-2 6.6-2 10-2Z"/>
  <path fill="#5C4737" d="m21 16 3 1v3h-2l1 5c-2-1.3-2-1.3-4-3v-4h2v-2Z"/>
  <path fill="#D9D2C8" d="M8.2 74.7 8 82l-4-1c.3-1.9.3-1.9 1-4 3-2 2.2-2.3 3.2-2.3Z"/>
  <path fill="#C8BCAB" d="m70.2 67.9 3.8.1v2c-6 1.8-6 1.8-8 2l-3-2c3-2 3.7-2.2 7.2-2.1Z"/>
  <path fill="#C1BDD1" d="m32 63 3 1c-2 2.8-3.1 3-6.7 3.7L25 68l1-3c2-.8 2-.8 4-1l2 1v-2Z"/>
  <path fill="#D8D6E2" d="M10 52h2v5l2.5.2L9 61l1-9Z"/>
  <path fill="#ABB5BF" d="M34.2 17.1 35 21h2c-.6 2.9-.9 3.9-3 6l-1-.6 1.2-9.3Z"/>
  <path fill="#5A4A3F" d="M24 11c2-1.7 8 0 8 0v3l-8.8 1.2s-.3-3.3.8-4.2Z"/>
  <path fill="#B0ACBD" d="M34 57c.7-.7 2.3-.7 3 0 1 1 .7 2.9 0 4-1.2 1.9-3.8 3.4-6 3-1-.2-2-1-2-2s1.7-1.3 2.5-2c1-1 2.3-2.8 2.5-3Z"/>
  <path fill="#B5AFBC" d="m20 62 2 1-1 3h2v-2l3-1c0 3 0 3-1 5l-6-2 1-4Z"/>
  <path fill="#667479" d="M52 44c8.6.7 8.6.7 12 4-4.8.2-8.5-.2-13-2l1-2Z"/>
  <path fill="#D3CAC2" d="M27 87c2.6 2.6 2.2 5.6 2.7 9H26v-8l1-1Z"/>
  <path fill="#7C5E5C" d="M41.6 73.9 45 75c-.6 3.3-1.5 4.8-4 7l.6-8.1Z"/>
  <path fill="#ADA499" d="m51 59 12 1v1l-12 1v-3Z"/>
  <path fill="#C5B9A9" d="M53 67c3.3.6 4.8 1.5 7 4l-2 2c-2-.8-2-.8-4-2-.8-2.1-.8-2.1-1-4Z"/>
  <path fill="#BEB8B2" d="M85 55.8c3 .2 3 .2 5 2.2-3.4.6-3.4.6-7 1l-2-2c1-1 1-1 4-1.2Z"/>
  <path fill="#A09796" d="m29 79-1 4s-3 1.8-4 1 0-4 0-4c2-1 2-1 5-1Z"/>
  <path fill="#D0C5B9" d="m92 72 4 1v3h-7l3-4Z"/>
  <path fill="#C7CCDE" d="M25.2 26.1c5.5-.4 5.3-.5 7.7 1.4L34 29h-7v-2l-1.8-.9Z"/>
  <path fill="#3A2D22" d="M27 13h5c-1.1 3-1.7 3.8-4.6 5.3L25 19l2-6Z"/>
  <path fill="#B1ADBB" d="M36 63c2.3.3 2.9 0 4.6.7l.7 1.9-10 1.3c1.8-2 2.5-1.9 4.7-3.9Z"/>
  <path fill="#CFC3B3" d="M70 63c3.2.3 3.2.3 6 1v2h-9l3-3Z"/>
  <path fill="#9C9184" d="M48 63h7l-4 1 1 3h-4v-4Z"/>
  <path fill="#B9BAD1" d="m43 33.4 3 1.6 1.3 7c-1.6-1.1-2.9-1.2-4.3-3 .3-2.7-.6-3.3 0-5.6Z"/>
</svg>
